<svg xmlns="http://www.w3.org/2000/svg" xmlns:xlink="http://www.w3.org/1999/xlink" width="1064pt" height="620" viewBox="0 0 1064 465"><g id="graph0" class="graph" transform="scale(1 1) rotate(0) translate(4 461)"><title>%3</title><polygon fill="#fff" stroke="transparent" points="-4 4 -4 -461 1060 -461 1060 4 -4 4"/><text x="528" y="-441.8" font-family="Times,serif" font-size="14" text-anchor="middle">Compound Score: 45.4577</text><g id="node1" class="node"><title>C20H18NO6</title><path fill="none" stroke="#000" d="M679,-434C679,-434 589,-434 589,-434 583,-434 577,-428 577,-422 577,-422 577,-400 577,-400 577,-394 583,-388 589,-388 589,-388 679,-388 679,-388 685,-388 691,-394 691,-400 691,-400 691,-422 691,-422 691,-428 685,-434 679,-434"/><text x="585" y="-419.8" font-family="Times,serif" font-size="14" text-anchor="start">C</text><text x="596" y="-419.8" baseline-shift="sub" font-family="Times,serif" font-size="14" text-anchor="start">20</text><text x="612" y="-419.8" font-family="Times,serif" font-size="14" text-anchor="start">H</text><text x="625" y="-419.8" baseline-shift="sub" font-family="Times,serif" font-size="14" text-anchor="start">17</text><text x="641" y="-419.8" font-family="Times,serif" font-size="14" text-anchor="start">NO</text><text x="665" y="-419.8" baseline-shift="sub" font-family="Times,serif" font-size="14" text-anchor="start">6</text><text x="673" y="-419.8" baseline-shift="super" font-family="Times,serif" font-size="14" text-anchor="start">+</text><text x="591.5" y="-402.6" font-family="Times,serif" font-size="8" text-anchor="start">368.1136 Da, 0.18 %</text><text x="619.5" y="-394.6" font-family="Times,serif" font-size="8" text-anchor="start">6.7429</text></g><g id="node2" class="node"><title>C20H16NO5</title><path fill="none" stroke="#000" d="M354,-337C354,-337 264,-337 264,-337 258,-337 252,-331 252,-325 252,-325 252,-303 252,-303 252,-297 258,-291 264,-291 264,-291 354,-291 354,-291 360,-291 366,-297 366,-303 366,-303 366,-325 366,-325 366,-331 360,-337 354,-337"/><text x="260" y="-322.8" font-family="Times,serif" font-size="14" text-anchor="start">C</text><text x="271" y="-322.8" baseline-shift="sub" font-family="Times,serif" font-size="14" text-anchor="start">20</text><text x="287" y="-322.8" font-family="Times,serif" font-size="14" text-anchor="start">H</text><text x="300" y="-322.8" baseline-shift="sub" font-family="Times,serif" font-size="14" text-anchor="start">15</text><text x="316" y="-322.8" font-family="Times,serif" font-size="14" text-anchor="start">NO</text><text x="340" y="-322.8" baseline-shift="sub" font-family="Times,serif" font-size="14" text-anchor="start">5</text><text x="348" y="-322.8" baseline-shift="super" font-family="Times,serif" font-size="14" text-anchor="start">+</text><text x="266.5" y="-305.6" font-family="Times,serif" font-size="8" text-anchor="start">350.1022 Da, 0.05 %</text><text x="294.5" y="-297.6" font-family="Times,serif" font-size="8" text-anchor="start">2.3406</text></g><g id="edge1" class="edge"><title>C20H18NO6-&gt;C20H16NO5</title><path fill="none" stroke="#000" d="M576.64,-393.23C520.46,-376.81 434.88,-351.8 375.69,-334.49"/><polygon fill="#000" stroke="#000" points="376.63 -331.12 366.05 -331.68 374.67 -337.84 376.63 -331.12"/><text x="491" y="-359.8" font-family="Times,serif" font-size="14" text-anchor="start">H</text><text x="504" y="-359.8" baseline-shift="sub" font-family="Times,serif" font-size="14" text-anchor="start">2</text><text x="512" y="-359.8" font-family="Times,serif" font-size="14" text-anchor="start">O</text></g><g id="node3" class="node"><title>C19H13O6</title><path fill="none" stroke="#000" d="M673,-337C673,-337 595,-337 595,-337 589,-337 583,-331 583,-325 583,-325 583,-303 583,-303 583,-297 589,-291 595,-291 595,-291 673,-291 673,-291 679,-291 685,-297 685,-303 685,-303 685,-325 685,-325 685,-331 679,-337 673,-337"/><text x="591" y="-322.8" font-family="Times,serif" font-size="14" text-anchor="start">C</text><text x="602" y="-322.8" baseline-shift="sub" font-family="Times,serif" font-size="14" text-anchor="start">19</text><text x="618" y="-322.8" font-family="Times,serif" font-size="14" text-anchor="start">H</text><text x="631" y="-322.8" baseline-shift="sub" font-family="Times,serif" font-size="14" text-anchor="start">12</text><text x="647" y="-322.8" font-family="Times,serif" font-size="14" text-anchor="start">O</text><text x="659" y="-322.8" baseline-shift="sub" font-family="Times,serif" font-size="14" text-anchor="start">6</text><text x="667" y="-322.8" baseline-shift="super" font-family="Times,serif" font-size="14" text-anchor="start">+</text><text x="591.5" y="-305.6" font-family="Times,serif" font-size="8" text-anchor="start">337.0704 Da, 0.05 %</text><text x="618" y="-297.6" font-family="Times,serif" font-size="8" text-anchor="start">-0.4295</text></g><g id="edge2" class="edge"><title>C20H18NO6-&gt;C19H13O6</title><path fill="none" stroke="#000" d="M634,-387.97C634,-375.94 634,-360.83 634,-347.48"/><polygon fill="#000" stroke="#000" points="637.5 -347.24 634 -337.24 630.5 -347.24 637.5 -347.24"/><text x="634" y="-359.8" font-family="Times,serif" font-size="14" text-anchor="start">CH</text><text x="657" y="-359.8" baseline-shift="sub" font-family="Times,serif" font-size="14" text-anchor="start">5</text><text x="665" y="-359.8" font-family="Times,serif" font-size="14" text-anchor="start">N</text></g><g id="node7" class="node"><title>C18H13O6</title><path fill="none" stroke="#000" d="M804,-337C804,-337 726,-337 726,-337 720,-337 714,-331 714,-325 714,-325 714,-303 714,-303 714,-297 720,-291 726,-291 726,-291 804,-291 804,-291 810,-291 816,-297 816,-303 816,-303 816,-325 816,-325 816,-331 810,-337 804,-337"/><text x="722" y="-322.8" font-family="Times,serif" font-size="14" text-anchor="start">C</text><text x="733" y="-322.8" baseline-shift="sub" font-family="Times,serif" font-size="14" text-anchor="start">18</text><text x="749" y="-322.8" font-family="Times,serif" font-size="14" text-anchor="start">H</text><text x="762" y="-322.8" baseline-shift="sub" font-family="Times,serif" font-size="14" text-anchor="start">12</text><text x="778" y="-322.8" font-family="Times,serif" font-size="14" text-anchor="start">O</text><text x="790" y="-322.8" baseline-shift="sub" font-family="Times,serif" font-size="14" text-anchor="start">6</text><text x="798" y="-322.8" baseline-shift="super" font-family="Times,serif" font-size="14" text-anchor="start">+</text><text x="722.5" y="-305.6" font-family="Times,serif" font-size="8" text-anchor="start">325.0700 Da, 0.05 %</text><text x="750.5" y="-297.6" font-family="Times,serif" font-size="8" text-anchor="start">0.1945</text></g><g id="edge6" class="edge"><title>C20H18NO6-&gt;C18H13O6</title><path fill="none" stroke="#000" d="M664.38,-387.97C682.77,-374.63 706.4,-357.5 726.13,-343.19"/><polygon fill="#000" stroke="#000" points="728.29 -345.95 734.33 -337.24 724.18 -340.28 728.29 -345.95"/><text x="708" y="-359.8" font-family="Times,serif" font-size="14" text-anchor="start">C</text><text x="719" y="-359.8" baseline-shift="sub" font-family="Times,serif" font-size="14" text-anchor="start">2</text><text x="727" y="-359.8" font-family="Times,serif" font-size="14" text-anchor="start">H</text><text x="740" y="-359.8" baseline-shift="sub" font-family="Times,serif" font-size="14" text-anchor="start">5</text><text x="748" y="-359.8" font-family="Times,serif" font-size="14" text-anchor="start">N</text></g><g id="node4" class="node"><title>C19H13NO5</title><path fill="none" stroke="#000" d="M102,-240C102,-240 12,-240 12,-240 6,-240 0,-234 0,-228 0,-228 0,-206 0,-206 0,-200 6,-194 12,-194 12,-194 102,-194 102,-194 108,-194 114,-200 114,-206 114,-206 114,-228 114,-228 114,-234 108,-240 102,-240"/><text x="8" y="-225.8" font-family="Times,serif" font-size="14" text-anchor="start">C</text><text x="19" y="-225.8" baseline-shift="sub" font-family="Times,serif" font-size="14" text-anchor="start">19</text><text x="35" y="-225.8" font-family="Times,serif" font-size="14" text-anchor="start">H</text><text x="48" y="-225.8" baseline-shift="sub" font-family="Times,serif" font-size="14" text-anchor="start">12</text><text x="64" y="-225.8" font-family="Times,serif" font-size="14" text-anchor="start">NO</text><text x="88" y="-225.8" baseline-shift="sub" font-family="Times,serif" font-size="14" text-anchor="start">5</text><text x="96" y="-225.8" baseline-shift="super" font-family="Times,serif" font-size="14" text-anchor="start">+</text><text x="14.5" y="-208.6" font-family="Times,serif" font-size="8" text-anchor="start">335.0785 Da, 0.04 %</text><text x="42.5" y="-200.6" font-family="Times,serif" font-size="8" text-anchor="start">1.7197</text></g><g id="edge3" class="edge"><title>C20H16NO5-&gt;C19H13NO5</title><path fill="none" stroke="#000" d="M251.82,-291.44C213.77,-277.1 163.65,-258.21 123.77,-243.17"/><polygon fill="#000" stroke="#000" points="124.98 -239.89 114.39 -239.64 122.51 -246.44 124.98 -239.89"/><text x="199" y="-262.8" font-family="Times,serif" font-size="14" text-anchor="start">CH</text><text x="222" y="-262.8" baseline-shift="sub" font-family="Times,serif" font-size="14" text-anchor="start">3</text></g><g id="node5" class="node"><title>C20H13O5</title><path fill="none" stroke="#000" d="M222,-240C222,-240 144,-240 144,-240 138,-240 132,-234 132,-228 132,-228 132,-206 132,-206 132,-200 138,-194 144,-194 144,-194 222,-194 222,-194 228,-194 234,-200 234,-206 234,-206 234,-228 234,-228 234,-234 228,-240 222,-240"/><text x="140" y="-225.8" font-family="Times,serif" font-size="14" text-anchor="start">C</text><text x="151" y="-225.8" baseline-shift="sub" font-family="Times,serif" font-size="14" text-anchor="start">20</text><text x="167" y="-225.8" font-family="Times,serif" font-size="14" text-anchor="start">H</text><text x="180" y="-225.8" baseline-shift="sub" font-family="Times,serif" font-size="14" text-anchor="start">12</text><text x="196" y="-225.8" font-family="Times,serif" font-size="14" text-anchor="start">O</text><text x="208" y="-225.8" baseline-shift="sub" font-family="Times,serif" font-size="14" text-anchor="start">5</text><text x="216" y="-225.8" baseline-shift="super" font-family="Times,serif" font-size="14" text-anchor="start">+</text><text x="140.5" y="-208.6" font-family="Times,serif" font-size="8" text-anchor="start">333.0755 Da, 0.01 %</text><text x="168.5" y="-200.6" font-family="Times,serif" font-size="8" text-anchor="start">0.1841</text></g><g id="edge4" class="edge"><title>C20H16NO5-&gt;C20H13O5</title><path fill="none" stroke="#000" d="M279.78,-290.97C262.17,-277.69 239.57,-260.65 220.64,-246.38"/><polygon fill="#000" stroke="#000" points="222.59 -243.47 212.5 -240.24 218.38 -249.06 222.59 -243.47"/><text x="254" y="-262.8" font-family="Times,serif" font-size="14" text-anchor="start">H</text><text x="267" y="-262.8" baseline-shift="sub" font-family="Times,serif" font-size="14" text-anchor="start">3</text><text x="275" y="-262.8" font-family="Times,serif" font-size="14" text-anchor="start">N</text></g><g id="node6" class="node"><title>C20H14NO4</title><path fill="none" stroke="#000" d="M354,-240C354,-240 264,-240 264,-240 258,-240 252,-234 252,-228 252,-228 252,-206 252,-206 252,-200 258,-194 264,-194 264,-194 354,-194 354,-194 360,-194 366,-200 366,-206 366,-206 366,-228 366,-228 366,-234 360,-240 354,-240"/><text x="260" y="-225.8" font-family="Times,serif" font-size="14" text-anchor="start">C</text><text x="271" y="-225.8" baseline-shift="sub" font-family="Times,serif" font-size="14" text-anchor="start">20</text><text x="287" y="-225.8" font-family="Times,serif" font-size="14" text-anchor="start">H</text><text x="300" y="-225.8" baseline-shift="sub" font-family="Times,serif" font-size="14" text-anchor="start">13</text><text x="316" y="-225.8" font-family="Times,serif" font-size="14" text-anchor="start">NO</text><text x="340" y="-225.8" baseline-shift="sub" font-family="Times,serif" font-size="14" text-anchor="start">4</text><text x="348" y="-225.8" baseline-shift="super" font-family="Times,serif" font-size="14" text-anchor="start">+</text><text x="266.5" y="-208.6" font-family="Times,serif" font-size="8" text-anchor="start">332.0915 Da, 0.01 %</text><text x="294.5" y="-200.6" font-family="Times,serif" font-size="8" text-anchor="start">1.6561</text></g><g id="edge5" class="edge"><title>C20H16NO5-&gt;C20H14NO4</title><path fill="none" stroke="#000" d="M309,-290.97C309,-278.94 309,-263.83 309,-250.48"/><polygon fill="#000" stroke="#000" points="312.5 -250.24 309 -240.24 305.5 -250.24 312.5 -250.24"/><text x="309" y="-262.8" font-family="Times,serif" font-size="14" text-anchor="start">H</text><text x="322" y="-262.8" baseline-shift="sub" font-family="Times,serif" font-size="14" text-anchor="start">2</text><text x="330" y="-262.8" font-family="Times,serif" font-size="14" text-anchor="start">O</text></g><g id="node8" class="node"><title>C19H13O5</title><path fill="none" stroke="#000" d="M474,-240C474,-240 396,-240 396,-240 390,-240 384,-234 384,-228 384,-228 384,-206 384,-206 384,-200 390,-194 396,-194 396,-194 474,-194 474,-194 480,-194 486,-200 486,-206 486,-206 486,-228 486,-228 486,-234 480,-240 474,-240"/><text x="392" y="-225.8" font-family="Times,serif" font-size="14" text-anchor="start">C</text><text x="403" y="-225.8" baseline-shift="sub" font-family="Times,serif" font-size="14" text-anchor="start">19</text><text x="419" y="-225.8" font-family="Times,serif" font-size="14" text-anchor="start">H</text><text x="432" y="-225.8" baseline-shift="sub" font-family="Times,serif" font-size="14" text-anchor="start">12</text><text x="448" y="-225.8" font-family="Times,serif" font-size="14" text-anchor="start">O</text><text x="460" y="-225.8" baseline-shift="sub" font-family="Times,serif" font-size="14" text-anchor="start">5</text><text x="468" y="-225.8" baseline-shift="super" font-family="Times,serif" font-size="14" text-anchor="start">+</text><text x="392.5" y="-208.6" font-family="Times,serif" font-size="8" text-anchor="start">321.0744 Da, 0.01 %</text><text x="419" y="-200.6" font-family="Times,serif" font-size="8" text-anchor="start">-1.5517</text></g><g id="edge7" class="edge"><title>C20H16NO5-&gt;C19H13O5</title><path fill="none" stroke="#000" d="M338.22,-290.97C355.83,-277.69 378.43,-260.65 397.36,-246.38"/><polygon fill="#000" stroke="#000" points="399.62 -249.06 405.5 -240.24 395.41 -243.47 399.62 -249.06"/><text x="380" y="-262.8" font-family="Times,serif" font-size="14" text-anchor="start">CH</text><text x="403" y="-262.8" baseline-shift="sub" font-family="Times,serif" font-size="14" text-anchor="start">3</text><text x="411" y="-262.8" font-family="Times,serif" font-size="14" text-anchor="start">N</text></g><g id="node9" class="node"><title>C19H11O5</title><path fill="none" stroke="#000" d="M654,-240C654,-240 576,-240 576,-240 570,-240 564,-234 564,-228 564,-228 564,-206 564,-206 564,-200 570,-194 576,-194 576,-194 654,-194 654,-194 660,-194 666,-200 666,-206 666,-206 666,-228 666,-228 666,-234 660,-240 654,-240"/><text x="572" y="-225.8" font-family="Times,serif" font-size="14" text-anchor="start">C</text><text x="583" y="-225.8" baseline-shift="sub" font-family="Times,serif" font-size="14" text-anchor="start">19</text><text x="599" y="-225.8" font-family="Times,serif" font-size="14" text-anchor="start">H</text><text x="612" y="-225.8" baseline-shift="sub" font-family="Times,serif" font-size="14" text-anchor="start">10</text><text x="628" y="-225.8" font-family="Times,serif" font-size="14" text-anchor="start">O</text><text x="640" y="-225.8" baseline-shift="sub" font-family="Times,serif" font-size="14" text-anchor="start">5</text><text x="648" y="-225.8" baseline-shift="super" font-family="Times,serif" font-size="14" text-anchor="start">+</text><text x="572.5" y="-208.6" font-family="Times,serif" font-size="8" text-anchor="start">319.0597 Da, 0.26 %</text><text x="600.5" y="-200.6" font-family="Times,serif" font-size="8" text-anchor="start">4.3299</text></g><g id="edge8" class="edge"><title>C19H13O6-&gt;C19H11O5</title><path fill="none" stroke="#000" d="M629.59,-290.97C627.16,-278.82 624.11,-263.53 621.42,-250.08"/><polygon fill="#000" stroke="#000" points="624.84 -249.36 619.45 -240.24 617.98 -250.74 624.84 -249.36"/><text x="626" y="-262.8" font-family="Times,serif" font-size="14" text-anchor="start">H</text><text x="639" y="-262.8" baseline-shift="sub" font-family="Times,serif" font-size="14" text-anchor="start">2</text><text x="647" y="-262.8" font-family="Times,serif" font-size="14" text-anchor="start">O</text></g><g id="node10" class="node"><title>C18H13O5</title><path fill="none" stroke="#000" d="M774,-240C774,-240 696,-240 696,-240 690,-240 684,-234 684,-228 684,-228 684,-206 684,-206 684,-200 690,-194 696,-194 696,-194 774,-194 774,-194 780,-194 786,-200 786,-206 786,-206 786,-228 786,-228 786,-234 780,-240 774,-240"/><text x="692" y="-225.8" font-family="Times,serif" font-size="14" text-anchor="start">C</text><text x="703" y="-225.8" baseline-shift="sub" font-family="Times,serif" font-size="14" text-anchor="start">18</text><text x="719" y="-225.8" font-family="Times,serif" font-size="14" text-anchor="start">H</text><text x="732" y="-225.8" baseline-shift="sub" font-family="Times,serif" font-size="14" text-anchor="start">12</text><text x="748" y="-225.8" font-family="Times,serif" font-size="14" text-anchor="start">O</text><text x="760" y="-225.8" baseline-shift="sub" font-family="Times,serif" font-size="14" text-anchor="start">5</text><text x="768" y="-225.8" baseline-shift="super" font-family="Times,serif" font-size="14" text-anchor="start">+</text><text x="692.5" y="-208.6" font-family="Times,serif" font-size="8" text-anchor="start">309.0753 Da, 0.01 %</text><text x="720.5" y="-200.6" font-family="Times,serif" font-size="8" text-anchor="start">1.3658</text></g><g id="edge9" class="edge"><title>C19H13O6-&gt;C18H13O5</title><path fill="none" stroke="#000" d="M657.43,-290.97C671.22,-277.99 688.84,-261.41 703.8,-247.34"/><polygon fill="#000" stroke="#000" points="706.47 -249.64 711.35 -240.24 701.67 -244.55 706.47 -249.64"/><text x="691" y="-261.8" font-family="Times,serif" font-size="14" text-anchor="start">CO</text></g><g id="node11" class="node"><title>C18H11O5</title><path fill="none" stroke="#000" d="M924,-240C924,-240 846,-240 846,-240 840,-240 834,-234 834,-228 834,-228 834,-206 834,-206 834,-200 840,-194 846,-194 846,-194 924,-194 924,-194 930,-194 936,-200 936,-206 936,-206 936,-228 936,-228 936,-234 930,-240 924,-240"/><text x="842" y="-225.8" font-family="Times,serif" font-size="14" text-anchor="start">C</text><text x="853" y="-225.8" baseline-shift="sub" font-family="Times,serif" font-size="14" text-anchor="start">18</text><text x="869" y="-225.8" font-family="Times,serif" font-size="14" text-anchor="start">H</text><text x="882" y="-225.8" baseline-shift="sub" font-family="Times,serif" font-size="14" text-anchor="start">10</text><text x="898" y="-225.8" font-family="Times,serif" font-size="14" text-anchor="start">O</text><text x="910" y="-225.8" baseline-shift="sub" font-family="Times,serif" font-size="14" text-anchor="start">5</text><text x="918" y="-225.8" baseline-shift="super" font-family="Times,serif" font-size="14" text-anchor="start">+</text><text x="842.5" y="-208.6" font-family="Times,serif" font-size="8" text-anchor="start">307.0602 Da, 1.00 %</text><text x="868" y="-200.6" font-family="Times,serif" font-size="8" text-anchor="start">13.5325</text></g><g id="edge10" class="edge"><title>C18H13O6-&gt;C18H11O5</title><path fill="none" stroke="#000" d="M792.83,-290.97C809.52,-277.75 830.93,-260.8 848.91,-246.57"/><polygon fill="#000" stroke="#000" points="851.24 -249.19 856.9 -240.24 846.89 -243.71 851.24 -249.19"/><text x="833" y="-262.8" font-family="Times,serif" font-size="14" text-anchor="start">H</text><text x="846" y="-262.8" baseline-shift="sub" font-family="Times,serif" font-size="14" text-anchor="start">2</text><text x="854" y="-262.8" font-family="Times,serif" font-size="14" text-anchor="start">O</text></g><g id="node12" class="node"><title>C19H11O4</title><path fill="none" stroke="#000" d="M324,-143C324,-143 246,-143 246,-143 240,-143 234,-137 234,-131 234,-131 234,-109 234,-109 234,-103 240,-97 246,-97 246,-97 324,-97 324,-97 330,-97 336,-103 336,-109 336,-109 336,-131 336,-131 336,-137 330,-143 324,-143"/><text x="242" y="-128.8" font-family="Times,serif" font-size="14" text-anchor="start">C</text><text x="253" y="-128.8" baseline-shift="sub" font-family="Times,serif" font-size="14" text-anchor="start">19</text><text x="269" y="-128.8" font-family="Times,serif" font-size="14" text-anchor="start">H</text><text x="282" y="-128.8" baseline-shift="sub" font-family="Times,serif" font-size="14" text-anchor="start">10</text><text x="298" y="-128.8" font-family="Times,serif" font-size="14" text-anchor="start">O</text><text x="310" y="-128.8" baseline-shift="sub" font-family="Times,serif" font-size="14" text-anchor="start">4</text><text x="318" y="-128.8" baseline-shift="super" font-family="Times,serif" font-size="14" text-anchor="start">+</text><text x="242.5" y="-111.6" font-family="Times,serif" font-size="8" text-anchor="start">303.0663 Da, 0.01 %</text><text x="270.5" y="-103.6" font-family="Times,serif" font-size="8" text-anchor="start">1.2004</text></g><g id="edge11" class="edge"><title>C19H13O5-&gt;C19H11O4</title><path fill="none" stroke="#000" d="M400.21,-193.97C378.8,-180.41 351.18,-162.91 328.35,-148.46"/><polygon fill="#000" stroke="#000" points="330.18 -145.47 319.86 -143.08 326.44 -151.39 330.18 -145.47"/><text x="369" y="-165.8" font-family="Times,serif" font-size="14" text-anchor="start">H</text><text x="382" y="-165.8" baseline-shift="sub" font-family="Times,serif" font-size="14" text-anchor="start">2</text><text x="390" y="-165.8" font-family="Times,serif" font-size="14" text-anchor="start">O</text></g><g id="node13" class="node"><title>C17H11O5</title><path fill="none" stroke="#000" d="M444,-143C444,-143 366,-143 366,-143 360,-143 354,-137 354,-131 354,-131 354,-109 354,-109 354,-103 360,-97 366,-97 366,-97 444,-97 444,-97 450,-97 456,-103 456,-109 456,-109 456,-131 456,-131 456,-137 450,-143 444,-143"/><text x="362" y="-128.8" font-family="Times,serif" font-size="14" text-anchor="start">C</text><text x="373" y="-128.8" baseline-shift="sub" font-family="Times,serif" font-size="14" text-anchor="start">17</text><text x="389" y="-128.8" font-family="Times,serif" font-size="14" text-anchor="start">H</text><text x="402" y="-128.8" baseline-shift="sub" font-family="Times,serif" font-size="14" text-anchor="start">10</text><text x="418" y="-128.8" font-family="Times,serif" font-size="14" text-anchor="start">O</text><text x="430" y="-128.8" baseline-shift="sub" font-family="Times,serif" font-size="14" text-anchor="start">5</text><text x="438" y="-128.8" baseline-shift="super" font-family="Times,serif" font-size="14" text-anchor="start">+</text><text x="362.5" y="-111.6" font-family="Times,serif" font-size="8" text-anchor="start">295.0606 Da, 0.01 %</text><text x="390.5" y="-103.6" font-family="Times,serif" font-size="8" text-anchor="start">1.0374</text></g><g id="edge12" class="edge"><title>C19H13O5-&gt;C17H11O5</title><path fill="none" stroke="#000" d="M428.04,-193.97C424.21,-181.82 419.38,-166.53 415.13,-153.08"/><polygon fill="#000" stroke="#000" points="418.37 -151.73 412.02 -143.24 411.7 -153.83 418.37 -151.73"/><text x="422" y="-165.8" font-family="Times,serif" font-size="14" text-anchor="start">C</text><text x="433" y="-165.8" baseline-shift="sub" font-family="Times,serif" font-size="14" text-anchor="start">2</text><text x="441" y="-165.8" font-family="Times,serif" font-size="14" text-anchor="start">H</text><text x="454" y="-165.8" baseline-shift="sub" font-family="Times,serif" font-size="14" text-anchor="start">2</text></g><g id="node14" class="node"><title>C18H13O4</title><path fill="none" stroke="#000" d="M564,-143C564,-143 486,-143 486,-143 480,-143 474,-137 474,-131 474,-131 474,-109 474,-109 474,-103 480,-97 486,-97 486,-97 564,-97 564,-97 570,-97 576,-103 576,-109 576,-109 576,-131 576,-131 576,-137 570,-143 564,-143"/><text x="482" y="-128.8" font-family="Times,serif" font-size="14" text-anchor="start">C</text><text x="493" y="-128.8" baseline-shift="sub" font-family="Times,serif" font-size="14" text-anchor="start">18</text><text x="509" y="-128.8" font-family="Times,serif" font-size="14" text-anchor="start">H</text><text x="522" y="-128.8" baseline-shift="sub" font-family="Times,serif" font-size="14" text-anchor="start">12</text><text x="538" y="-128.8" font-family="Times,serif" font-size="14" text-anchor="start">O</text><text x="550" y="-128.8" baseline-shift="sub" font-family="Times,serif" font-size="14" text-anchor="start">4</text><text x="558" y="-128.8" baseline-shift="super" font-family="Times,serif" font-size="14" text-anchor="start">+</text><text x="482.5" y="-111.6" font-family="Times,serif" font-size="8" text-anchor="start">293.0810 Da, 0.01 %</text><text x="510.5" y="-103.6" font-family="Times,serif" font-size="8" text-anchor="start">1.5671</text></g><g id="edge13" class="edge"><title>C19H13O5-&gt;C18H13O4</title><path fill="none" stroke="#000" d="M455.87,-193.97C468.05,-181.11 483.58,-164.72 496.83,-150.73"/><polygon fill="#000" stroke="#000" points="499.59 -152.91 503.93 -143.24 494.51 -148.1 499.59 -152.91"/><text x="486" y="-164.8" font-family="Times,serif" font-size="14" text-anchor="start">CO</text></g><g id="node15" class="node"><title>C18H11O4</title><path fill="none" stroke="#000" d="M684,-143C684,-143 606,-143 606,-143 600,-143 594,-137 594,-131 594,-131 594,-109 594,-109 594,-103 600,-97 606,-97 606,-97 684,-97 684,-97 690,-97 696,-103 696,-109 696,-109 696,-131 696,-131 696,-137 690,-143 684,-143"/><text x="602" y="-128.8" font-family="Times,serif" font-size="14" text-anchor="start">C</text><text x="613" y="-128.8" baseline-shift="sub" font-family="Times,serif" font-size="14" text-anchor="start">18</text><text x="629" y="-128.8" font-family="Times,serif" font-size="14" text-anchor="start">H</text><text x="642" y="-128.8" baseline-shift="sub" font-family="Times,serif" font-size="14" text-anchor="start">10</text><text x="658" y="-128.8" font-family="Times,serif" font-size="14" text-anchor="start">O</text><text x="670" y="-128.8" baseline-shift="sub" font-family="Times,serif" font-size="14" text-anchor="start">4</text><text x="678" y="-128.8" baseline-shift="super" font-family="Times,serif" font-size="14" text-anchor="start">+</text><text x="602.5" y="-111.6" font-family="Times,serif" font-size="8" text-anchor="start">291.0656 Da, 0.01 %</text><text x="630.5" y="-103.6" font-family="Times,serif" font-size="8" text-anchor="start">1.7830</text></g><g id="edge14" class="edge"><title>C18H13O5-&gt;C18H11O4</title><path fill="none" stroke="#000" d="M714.13,-193.97C701.95,-181.11 686.42,-164.72 673.17,-150.73"/><polygon fill="#000" stroke="#000" points="675.49 -148.1 666.07 -143.24 670.41 -152.91 675.49 -148.1"/><text x="696" y="-165.8" font-family="Times,serif" font-size="14" text-anchor="start">H</text><text x="709" y="-165.8" baseline-shift="sub" font-family="Times,serif" font-size="14" text-anchor="start">2</text><text x="717" y="-165.8" font-family="Times,serif" font-size="14" text-anchor="start">O</text></g><g id="node17" class="node"><title>C17H13O4</title><path fill="none" stroke="#000" d="M804,-143C804,-143 726,-143 726,-143 720,-143 714,-137 714,-131 714,-131 714,-109 714,-109 714,-103 720,-97 726,-97 726,-97 804,-97 804,-97 810,-97 816,-103 816,-109 816,-109 816,-131 816,-131 816,-137 810,-143 804,-143"/><text x="722" y="-128.8" font-family="Times,serif" font-size="14" text-anchor="start">C</text><text x="733" y="-128.8" baseline-shift="sub" font-family="Times,serif" font-size="14" text-anchor="start">17</text><text x="749" y="-128.8" font-family="Times,serif" font-size="14" text-anchor="start">H</text><text x="762" y="-128.8" baseline-shift="sub" font-family="Times,serif" font-size="14" text-anchor="start">12</text><text x="778" y="-128.8" font-family="Times,serif" font-size="14" text-anchor="start">O</text><text x="790" y="-128.8" baseline-shift="sub" font-family="Times,serif" font-size="14" text-anchor="start">4</text><text x="798" y="-128.8" baseline-shift="super" font-family="Times,serif" font-size="14" text-anchor="start">+</text><text x="722.5" y="-111.6" font-family="Times,serif" font-size="8" text-anchor="start">281.0811 Da, 0.01 %</text><text x="750.5" y="-103.6" font-family="Times,serif" font-size="8" text-anchor="start">1.4178</text></g><g id="edge16" class="edge"><title>C18H13O5-&gt;C17H13O4</title><path fill="none" stroke="#000" d="M741.96,-193.97C745.79,-181.82 750.62,-166.53 754.87,-153.08"/><polygon fill="#000" stroke="#000" points="758.3 -153.83 757.98 -143.24 751.63 -151.73 758.3 -153.83"/><text x="752" y="-164.8" font-family="Times,serif" font-size="14" text-anchor="start">CO</text></g><g id="node16" class="node"><title>C18H9O4</title><path fill="none" stroke="#000" d="M923.5,-143C923.5,-143 846.5,-143 846.5,-143 840.5,-143 834.5,-137 834.5,-131 834.5,-131 834.5,-109 834.5,-109 834.5,-103 840.5,-97 846.5,-97 846.5,-97 923.5,-97 923.5,-97 929.5,-97 935.5,-103 935.5,-109 935.5,-109 935.5,-131 935.5,-131 935.5,-137 929.5,-143 923.5,-143"/><text x="846" y="-128.8" font-family="Times,serif" font-size="14" text-anchor="start">C</text><text x="857" y="-128.8" baseline-shift="sub" font-family="Times,serif" font-size="14" text-anchor="start">18</text><text x="873" y="-128.8" font-family="Times,serif" font-size="14" text-anchor="start">H</text><text x="886" y="-128.8" baseline-shift="sub" font-family="Times,serif" font-size="14" text-anchor="start">8</text><text x="894" y="-128.8" font-family="Times,serif" font-size="14" text-anchor="start">O</text><text x="906" y="-128.8" baseline-shift="sub" font-family="Times,serif" font-size="14" text-anchor="start">4</text><text x="914" y="-128.8" baseline-shift="super" font-family="Times,serif" font-size="14" text-anchor="start">+</text><text x="842.5" y="-111.6" font-family="Times,serif" font-size="8" text-anchor="start">289.0498 Da, 0.04 %</text><text x="870.5" y="-103.6" font-family="Times,serif" font-size="8" text-anchor="start">2.5735</text></g><g id="edge15" class="edge"><title>C18H11O5-&gt;C18H9O4</title><path fill="none" stroke="#000" d="M885,-193.97C885,-181.94 885,-166.83 885,-153.48"/><polygon fill="#000" stroke="#000" points="888.5 -153.24 885 -143.24 881.5 -153.24 888.5 -153.24"/><text x="885" y="-165.8" font-family="Times,serif" font-size="14" text-anchor="start">H</text><text x="898" y="-165.8" baseline-shift="sub" font-family="Times,serif" font-size="14" text-anchor="start">2</text><text x="906" y="-165.8" font-family="Times,serif" font-size="14" text-anchor="start">O</text></g><g id="node18" class="node"><title>C17H11O4</title><path fill="none" stroke="#000" d="M1044,-143C1044,-143 966,-143 966,-143 960,-143 954,-137 954,-131 954,-131 954,-109 954,-109 954,-103 960,-97 966,-97 966,-97 1044,-97 1044,-97 1050,-97 1056,-103 1056,-109 1056,-109 1056,-131 1056,-131 1056,-137 1050,-143 1044,-143"/><text x="962" y="-128.8" font-family="Times,serif" font-size="14" text-anchor="start">C</text><text x="973" y="-128.8" baseline-shift="sub" font-family="Times,serif" font-size="14" text-anchor="start">17</text><text x="989" y="-128.8" font-family="Times,serif" font-size="14" text-anchor="start">H</text><text x="1002" y="-128.8" baseline-shift="sub" font-family="Times,serif" font-size="14" text-anchor="start">10</text><text x="1018" y="-128.8" font-family="Times,serif" font-size="14" text-anchor="start">O</text><text x="1030" y="-128.8" baseline-shift="sub" font-family="Times,serif" font-size="14" text-anchor="start">4</text><text x="1038" y="-128.8" baseline-shift="super" font-family="Times,serif" font-size="14" text-anchor="start">+</text><text x="962.5" y="-111.6" font-family="Times,serif" font-size="8" text-anchor="start">279.0651 Da, 0.01 %</text><text x="990.5" y="-103.6" font-family="Times,serif" font-size="8" text-anchor="start">1.1712</text></g><g id="edge17" class="edge"><title>C18H11O5-&gt;C17H11O4</title><path fill="none" stroke="#000" d="M912.83,-193.97C929.52,-180.75 950.93,-163.8 968.91,-149.57"/><polygon fill="#000" stroke="#000" points="971.24 -152.19 976.9 -143.24 966.89 -146.71 971.24 -152.19"/><text x="953" y="-164.8" font-family="Times,serif" font-size="14" text-anchor="start">CO</text></g><g id="node19" class="node"><title>C17H9O4</title><path fill="none" stroke="#000" d="M443.5,-46C443.5,-46 366.5,-46 366.5,-46 360.5,-46 354.5,-40 354.5,-34 354.5,-34 354.5,-12 354.5,-12 354.5,-6 360.5,0 366.5,0 366.5,0 443.5,0 443.5,0 449.5,0 455.5,-6 455.5,-12 455.5,-12 455.5,-34 455.5,-34 455.5,-40 449.5,-46 443.5,-46"/><text x="366" y="-31.8" font-family="Times,serif" font-size="14" text-anchor="start">C</text><text x="377" y="-31.8" baseline-shift="sub" font-family="Times,serif" font-size="14" text-anchor="start">17</text><text x="393" y="-31.8" font-family="Times,serif" font-size="14" text-anchor="start">H</text><text x="406" y="-31.8" baseline-shift="sub" font-family="Times,serif" font-size="14" text-anchor="start">8</text><text x="414" y="-31.8" font-family="Times,serif" font-size="14" text-anchor="start">O</text><text x="426" y="-31.8" baseline-shift="sub" font-family="Times,serif" font-size="14" text-anchor="start">4</text><text x="434" y="-31.8" baseline-shift="super" font-family="Times,serif" font-size="14" text-anchor="start">+</text><text x="362.5" y="-14.6" font-family="Times,serif" font-size="8" text-anchor="start">277.0499 Da, 0.02 %</text><text x="390.5" y="-6.6" font-family="Times,serif" font-size="8" text-anchor="start">1.9877</text></g><g id="edge18" class="edge"><title>C17H11O5-&gt;C17H9O4</title><path fill="none" stroke="#000" d="M405,-96.97C405,-84.94 405,-69.83 405,-56.48"/><polygon fill="#000" stroke="#000" points="408.5 -56.24 405 -46.24 401.5 -56.24 408.5 -56.24"/><text x="405" y="-68.8" font-family="Times,serif" font-size="14" text-anchor="start">H</text><text x="418" y="-68.8" baseline-shift="sub" font-family="Times,serif" font-size="14" text-anchor="start">2</text><text x="426" y="-68.8" font-family="Times,serif" font-size="14" text-anchor="start">O</text></g><g id="node20" class="node"><title>C17H11O3</title><path fill="none" stroke="#000" d="M804,-46C804,-46 726,-46 726,-46 720,-46 714,-40 714,-34 714,-34 714,-12 714,-12 714,-6 720,0 726,0 726,0 804,0 804,0 810,0 816,-6 816,-12 816,-12 816,-34 816,-34 816,-40 810,-46 804,-46"/><text x="722" y="-31.8" font-family="Times,serif" font-size="14" text-anchor="start">C</text><text x="733" y="-31.8" baseline-shift="sub" font-family="Times,serif" font-size="14" text-anchor="start">17</text><text x="749" y="-31.8" font-family="Times,serif" font-size="14" text-anchor="start">H</text><text x="762" y="-31.8" baseline-shift="sub" font-family="Times,serif" font-size="14" text-anchor="start">10</text><text x="778" y="-31.8" font-family="Times,serif" font-size="14" text-anchor="start">O</text><text x="790" y="-31.8" baseline-shift="sub" font-family="Times,serif" font-size="14" text-anchor="start">3</text><text x="798" y="-31.8" baseline-shift="super" font-family="Times,serif" font-size="14" text-anchor="start">+</text><text x="722.5" y="-14.6" font-family="Times,serif" font-size="8" text-anchor="start">263.0705 Da, 0.01 %</text><text x="750.5" y="-6.6" font-family="Times,serif" font-size="8" text-anchor="start">1.3940</text></g><g id="edge19" class="edge"><title>C17H13O4-&gt;C17H11O3</title><path fill="none" stroke="#000" d="M765,-96.97C765,-84.94 765,-69.83 765,-56.48"/><polygon fill="#000" stroke="#000" points="768.5 -56.24 765 -46.24 761.5 -56.24 768.5 -56.24"/><text x="765" y="-68.8" font-family="Times,serif" font-size="14" text-anchor="start">H</text><text x="778" y="-68.8" baseline-shift="sub" font-family="Times,serif" font-size="14" text-anchor="start">2</text><text x="786" y="-68.8" font-family="Times,serif" font-size="14" text-anchor="start">O</text></g><g id="node21" class="node"><title>C17H9O3</title><path fill="none" stroke="#000" d="M1043.5,-46C1043.5,-46 966.5,-46 966.5,-46 960.5,-46 954.5,-40 954.5,-34 954.5,-34 954.5,-12 954.5,-12 954.5,-6 960.5,0 966.5,0 966.5,0 1043.5,0 1043.5,0 1049.5,0 1055.5,-6 1055.5,-12 1055.5,-12 1055.5,-34 1055.5,-34 1055.5,-40 1049.5,-46 1043.5,-46"/><text x="966" y="-31.8" font-family="Times,serif" font-size="14" text-anchor="start">C</text><text x="977" y="-31.8" baseline-shift="sub" font-family="Times,serif" font-size="14" text-anchor="start">17</text><text x="993" y="-31.8" font-family="Times,serif" font-size="14" text-anchor="start">H</text><text x="1006" y="-31.8" baseline-shift="sub" font-family="Times,serif" font-size="14" text-anchor="start">8</text><text x="1014" y="-31.8" font-family="Times,serif" font-size="14" text-anchor="start">O</text><text x="1026" y="-31.8" baseline-shift="sub" font-family="Times,serif" font-size="14" text-anchor="start">3</text><text x="1034" y="-31.8" baseline-shift="super" font-family="Times,serif" font-size="14" text-anchor="start">+</text><text x="962.5" y="-14.6" font-family="Times,serif" font-size="8" text-anchor="start">261.0545 Da, 0.01 %</text><text x="990.5" y="-6.6" font-family="Times,serif" font-size="8" text-anchor="start">1.2407</text></g><g id="edge20" class="edge"><title>C17H11O4-&gt;C17H9O3</title><path fill="none" stroke="#000" d="M1005,-96.97C1005,-84.94 1005,-69.83 1005,-56.48"/><polygon fill="#000" stroke="#000" points="1008.5 -56.24 1005 -46.24 1001.5 -56.24 1008.5 -56.24"/><text x="1005" y="-68.8" font-family="Times,serif" font-size="14" text-anchor="start">H</text><text x="1018" y="-68.8" baseline-shift="sub" font-family="Times,serif" font-size="14" text-anchor="start">2</text><text x="1026" y="-68.8" font-family="Times,serif" font-size="14" text-anchor="start">O</text></g></g></svg>