<svg xmlns="http://www.w3.org/2000/svg" xmlns:svg="http://www.w3.org/2000/svg" id="svg2" width="370.667" height="716" version="1.1" viewBox="0 0 370.667 716" xml:space="preserve"><metadata id="metadata8"/><g id="g10" transform="matrix(1.3333333,0,0,-1.3333333,0,716)"><g id="g12"><path id="path14" style="fill:#fff;fill-opacity:1;fill-rule:nonzero;stroke:none" d="M 36,501 H 242 V 36 H 36 Z"/><text id="text18" style="font-variant:normal;font-size:14.00024414px;font-family:'Nimbus Roman';-inkscape-font-specification:NimbusRomNo9L-Regu;writing-mode:lr-tb;fill:#000;fill-opacity:1;fill-rule:nonzero;stroke:none" transform="matrix(1,0,0,-1,65,481.80078)"><tspan id="tspan16" x="0 9.002 15.75 27.006 33.755 40.503 47.251 53.999 60.761 64.499 72.003 78.009 84.757 89.252 95.258 99.01 102.762 109.51 116.258 120.01 126.758 133.506 140.254" y="0">Compound Score: 21.6168</tspan></text><path id="path20" style="fill:none;stroke:#000;stroke-width:1;stroke-linecap:butt;stroke-linejoin:round;stroke-miterlimit:10;stroke-dasharray:none;stroke-opacity:1" d="m 161,474 c 0,0 -72,0 -72,0 -6,0 -12,-6 -12,-12 0,0 0,-22 0,-22 0,-6 6,-12 12,-12 0,0 72,0 72,0 6,0 12,6 12,12 0,0 0,22 0,22 0,6 -6,12 -12,12"/><text id="text24" style="font-variant:normal;font-size:14.00024414px;font-family:'Nimbus Roman';-inkscape-font-specification:NimbusRomNo9L-Regu;writing-mode:lr-tb;fill:#000;fill-opacity:1;fill-rule:nonzero;stroke:none" transform="matrix(1,0,0,-1,85,459.80078)"><tspan id="tspan22" x="0" y="0">C</tspan></text><text id="text28" style="font-variant:normal;font-size:11.66601562px;font-family:'Nimbus Roman';-inkscape-font-specification:NimbusRomNo9L-Regu;writing-mode:lr-tb;fill:#000;fill-opacity:1;fill-rule:nonzero;stroke:none" transform="matrix(1,0,0,-1,95,456.13672)"><tspan id="tspan26" x="0 5.996" y="0">14</tspan></text><text id="text32" style="font-variant:normal;font-size:14.00024414px;font-family:'Nimbus Roman';-inkscape-font-specification:NimbusRomNo9L-Regu;writing-mode:lr-tb;fill:#000;fill-opacity:1;fill-rule:nonzero;stroke:none" transform="matrix(1,0,0,-1,108,459.80078)"><tspan id="tspan30" x="0" y="0">H</tspan></text><text id="text36" style="font-variant:normal;font-size:11.66601562px;font-family:'Nimbus Roman';-inkscape-font-specification:NimbusRomNo9L-Regu;writing-mode:lr-tb;fill:#000;fill-opacity:1;fill-rule:nonzero;stroke:none" transform="matrix(1,0,0,-1,118,456.13672)"><tspan id="tspan34" x="0 5.996" y="0">20</tspan></text><text id="text40" style="font-variant:normal;font-size:14.00024414px;font-family:'Nimbus Roman';-inkscape-font-specification:NimbusRomNo9L-Regu;writing-mode:lr-tb;fill:#000;fill-opacity:1;fill-rule:nonzero;stroke:none" transform="matrix(1,0,0,-1,131,459.80078)"><tspan id="tspan38" x="0 9.744" y="0">NO</tspan></text><text id="text46" style="font-variant:normal;font-size:11.66601562px;font-family:'Nimbus Roman';-inkscape-font-specification:NimbusRomNo9L-Regu;writing-mode:lr-tb;fill:#000;fill-opacity:1;fill-rule:nonzero;stroke:none" transform="matrix(1,0,0,-1,151,456.13672)"><tspan id="tspan42" x="0" y="0">4</tspan><tspan id="tspan44" x="7" y="-7.324">+</tspan></text><text id="text52" style="font-variant:normal;font-size:8.00024414px;font-family:'Nimbus Roman';-inkscape-font-specification:NimbusRomNo9L-Regu;writing-mode:lr-tb;fill:#000;fill-opacity:1;fill-rule:nonzero;stroke:none" transform="matrix(1,0,0,-1,91.000001,442.60157)"><tspan id="tspan48" x="0 3.752 7.504 11.248 13.504 17.249 21.001 24.753 28.505 30.753 36.753 40.505 42.753 45.001 48.753 51.002 54.754 58.506 60.754" y="0">266.1390 Da, 0.00 %</tspan><tspan id="tspan50" x="23 26.752 29 32.752 36.504 40.249" y="8">0.2047</tspan></text><path id="path54" style="fill:none;stroke:#000;stroke-width:1;stroke-linecap:butt;stroke-linejoin:round;stroke-miterlimit:10;stroke-dasharray:none;stroke-opacity:1" d="m 159,377 c 0,0 -68,0 -68,0 -6,0 -12,-6 -12,-12 0,0 0,-22 0,-22 0,-6 6,-12 12,-12 0,0 68,0 68,0 6,0 12,6 12,12 0,0 0,22 0,22 0,6 -6,12 -12,12"/><text id="text58" style="font-variant:normal;font-size:14.00024414px;font-family:'Nimbus Roman';-inkscape-font-specification:NimbusRomNo9L-Regu;writing-mode:lr-tb;fill:#000;fill-opacity:1;fill-rule:nonzero;stroke:none" transform="matrix(1,0,0,-1,90,362.80078)"><tspan id="tspan56" x="0" y="0">C</tspan></text><text id="text62" style="font-variant:normal;font-size:11.66601562px;font-family:'Nimbus Roman';-inkscape-font-specification:NimbusRomNo9L-Regu;writing-mode:lr-tb;fill:#000;fill-opacity:1;fill-rule:nonzero;stroke:none" transform="matrix(1,0,0,-1,100,359.13672)"><tspan id="tspan60" x="0 5.996" y="0">11</tspan></text><text id="text66" style="font-variant:normal;font-size:14.00024414px;font-family:'Nimbus Roman';-inkscape-font-specification:NimbusRomNo9L-Regu;writing-mode:lr-tb;fill:#000;fill-opacity:1;fill-rule:nonzero;stroke:none" transform="matrix(1,0,0,-1,113,362.80078)"><tspan id="tspan64" x="0" y="0">H</tspan></text><text id="text70" style="font-variant:normal;font-size:11.66601562px;font-family:'Nimbus Roman';-inkscape-font-specification:NimbusRomNo9L-Regu;writing-mode:lr-tb;fill:#000;fill-opacity:1;fill-rule:nonzero;stroke:none" transform="matrix(1,0,0,-1,123,359.13672)"><tspan id="tspan68" x="0 5.996" y="0">11</tspan></text><text id="text74" style="font-variant:normal;font-size:14.00024414px;font-family:'Nimbus Roman';-inkscape-font-specification:NimbusRomNo9L-Regu;writing-mode:lr-tb;fill:#000;fill-opacity:1;fill-rule:nonzero;stroke:none" transform="matrix(1,0,0,-1,136,362.80078)"><tspan id="tspan72" x="0" y="0">O</tspan></text><text id="text80" style="font-variant:normal;font-size:11.66601562px;font-family:'Nimbus Roman';-inkscape-font-specification:NimbusRomNo9L-Regu;writing-mode:lr-tb;fill:#000;fill-opacity:1;fill-rule:nonzero;stroke:none" transform="matrix(1,0,0,-1,146,359.13672)"><tspan id="tspan76" x="0" y="0">4</tspan><tspan id="tspan78" x="7" y="-7.324">+</tspan></text><text id="text86" style="font-variant:normal;font-size:8.00024414px;font-family:'Nimbus Roman';-inkscape-font-specification:NimbusRomNo9L-Regu;writing-mode:lr-tb;fill:#000;fill-opacity:1;fill-rule:nonzero;stroke:none" transform="matrix(1,0,0,-1,86.999999,345.60157)"><tspan id="tspan82" x="0 3.752 7.504 11.248 13.504 17.249 21.001 24.753 28.505 30.753 36.753 40.505 42.753 45.001 48.753 52.506 56.25 58.506 62.258 66.002 68.258" y="0">207.0660 Da, 100.00 %</tspan><tspan id="tspan84" x="25.5 28.5 32.252 34.5 38.252 42.005 45.749" y="8">-0.3286</tspan></text><path id="path88" style="fill:none;stroke:#000;stroke-width:1;stroke-linecap:butt;stroke-linejoin:round;stroke-miterlimit:10;stroke-dasharray:none;stroke-opacity:1" d="m 125,427.965 c 0,-12.024 0,-27.137 0,-40.488"/><path id="path90" style="fill:#000;fill-opacity:1;fill-rule:nonzero;stroke:#000;stroke-width:1;stroke-linecap:butt;stroke-linejoin:round;stroke-miterlimit:10;stroke-dasharray:none;stroke-opacity:1" d="m 128.5,387.242 -3.5,-10 -3.5,10 z"/><text id="text94" style="font-variant:normal;font-size:14.00024414px;font-family:'Nimbus Roman';-inkscape-font-specification:NimbusRomNo9L-Regu;writing-mode:lr-tb;fill:#000;fill-opacity:1;fill-rule:nonzero;stroke:none" transform="matrix(1,0,0,-1,125,399.80078)"><tspan id="tspan92" x="0" y="0">C</tspan></text><text id="text98" style="font-variant:normal;font-size:11.66601562px;font-family:'Nimbus Roman';-inkscape-font-specification:NimbusRomNo9L-Regu;writing-mode:lr-tb;fill:#000;fill-opacity:1;fill-rule:nonzero;stroke:none" transform="matrix(1,0,0,-1,135,396.13672)"><tspan id="tspan96" x="0" y="0">3</tspan></text><text id="text102" style="font-variant:normal;font-size:14.00024414px;font-family:'Nimbus Roman';-inkscape-font-specification:NimbusRomNo9L-Regu;writing-mode:lr-tb;fill:#000;fill-opacity:1;fill-rule:nonzero;stroke:none" transform="matrix(1,0,0,-1,142,399.80078)"><tspan id="tspan100" x="0" y="0">H</tspan></text><text id="text106" style="font-variant:normal;font-size:11.66601562px;font-family:'Nimbus Roman';-inkscape-font-specification:NimbusRomNo9L-Regu;writing-mode:lr-tb;fill:#000;fill-opacity:1;fill-rule:nonzero;stroke:none" transform="matrix(1,0,0,-1,152,396.13672)"><tspan id="tspan104" x="0" y="0">9</tspan></text><text id="text110" style="font-variant:normal;font-size:14.00024414px;font-family:'Nimbus Roman';-inkscape-font-specification:NimbusRomNo9L-Regu;writing-mode:lr-tb;fill:#000;fill-opacity:1;fill-rule:nonzero;stroke:none" transform="matrix(1,0,0,-1,159,399.80078)"><tspan id="tspan108" x="0" y="0">N</tspan></text><path id="path112" style="fill:none;stroke:#000;stroke-width:1;stroke-linecap:butt;stroke-linejoin:round;stroke-miterlimit:10;stroke-dasharray:none;stroke-opacity:1" d="m 157,280 c 0,0 -64,0 -64,0 -6,0 -12,-6 -12,-12 0,0 0,-22 0,-22 0,-6 6,-12 12,-12 0,0 64,0 64,0 6,0 12,6 12,12 0,0 0,22 0,22 0,6 -6,12 -12,12"/><text id="text116" style="font-variant:normal;font-size:14.00024414px;font-family:'Nimbus Roman';-inkscape-font-specification:NimbusRomNo9L-Regu;writing-mode:lr-tb;fill:#000;fill-opacity:1;fill-rule:nonzero;stroke:none" transform="matrix(1,0,0,-1,96,265.80078)"><tspan id="tspan114" x="0" y="0">C</tspan></text><text id="text120" style="font-variant:normal;font-size:11.66601562px;font-family:'Nimbus Roman';-inkscape-font-specification:NimbusRomNo9L-Regu;writing-mode:lr-tb;fill:#000;fill-opacity:1;fill-rule:nonzero;stroke:none" transform="matrix(1,0,0,-1,106,262.13672)"><tspan id="tspan118" x="0" y="0">8</tspan></text><text id="text124" style="font-variant:normal;font-size:14.00024414px;font-family:'Nimbus Roman';-inkscape-font-specification:NimbusRomNo9L-Regu;writing-mode:lr-tb;fill:#000;fill-opacity:1;fill-rule:nonzero;stroke:none" transform="matrix(1,0,0,-1,113,265.80078)"><tspan id="tspan122" x="0" y="0">H</tspan></text><text id="text128" style="font-variant:normal;font-size:11.66601562px;font-family:'Nimbus Roman';-inkscape-font-specification:NimbusRomNo9L-Regu;writing-mode:lr-tb;fill:#000;fill-opacity:1;fill-rule:nonzero;stroke:none" transform="matrix(1,0,0,-1,123,262.13672)"><tspan id="tspan126" x="0" y="0">7</tspan></text><text id="text132" style="font-variant:normal;font-size:14.00024414px;font-family:'Nimbus Roman';-inkscape-font-specification:NimbusRomNo9L-Regu;writing-mode:lr-tb;fill:#000;fill-opacity:1;fill-rule:nonzero;stroke:none" transform="matrix(1,0,0,-1,130,265.80078)"><tspan id="tspan130" x="0" y="0">O</tspan></text><text id="text138" style="font-variant:normal;font-size:11.66601562px;font-family:'Nimbus Roman';-inkscape-font-specification:NimbusRomNo9L-Regu;writing-mode:lr-tb;fill:#000;fill-opacity:1;fill-rule:nonzero;stroke:none" transform="matrix(1,0,0,-1,140,262.13672)"><tspan id="tspan134" x="0" y="0">2</tspan><tspan id="tspan136" x="7" y="-7.324">+</tspan></text><text id="text144" style="font-variant:normal;font-size:8.00024414px;font-family:'Nimbus Roman';-inkscape-font-specification:NimbusRomNo9L-Regu;writing-mode:lr-tb;fill:#000;fill-opacity:1;fill-rule:nonzero;stroke:none" transform="matrix(1,0,0,-1,89.000004,248.60157)"><tspan id="tspan140" x="0 3.752 7.504 11.248 13.504 17.249 21.001 24.753 28.505 30.753 36.753 40.505 42.753 45.001 48.753 52.506 54.754 58.506 62.258 64.506" y="0">135.0430 Da, 78.74 %</tspan><tspan id="tspan142" x="25 28.752 31 34.752 38.504 42.249" y="8">1.2747</tspan></text><path id="path146" style="fill:none;stroke:#000;stroke-width:1;stroke-linecap:butt;stroke-linejoin:round;stroke-miterlimit:10;stroke-dasharray:none;stroke-opacity:1" d="m 125,330.965 c 0,-12.024 0,-27.137 0,-40.488"/><path id="path148" style="fill:#000;fill-opacity:1;fill-rule:nonzero;stroke:#000;stroke-width:1;stroke-linecap:butt;stroke-linejoin:round;stroke-miterlimit:10;stroke-dasharray:none;stroke-opacity:1" d="m 128.5,290.242 -3.5,-10 -3.5,10 z"/><text id="text152" style="font-variant:normal;font-size:14.00024414px;font-family:'Nimbus Roman';-inkscape-font-specification:NimbusRomNo9L-Regu;writing-mode:lr-tb;fill:#000;fill-opacity:1;fill-rule:nonzero;stroke:none" transform="matrix(1,0,0,-1,125,302.80078)"><tspan id="tspan150" x="0" y="0">C</tspan></text><text id="text156" style="font-variant:normal;font-size:11.66601562px;font-family:'Nimbus Roman';-inkscape-font-specification:NimbusRomNo9L-Regu;writing-mode:lr-tb;fill:#000;fill-opacity:1;fill-rule:nonzero;stroke:none" transform="matrix(1,0,0,-1,135,299.13672)"><tspan id="tspan154" x="0" y="0">3</tspan></text><text id="text160" style="font-variant:normal;font-size:14.00024414px;font-family:'Nimbus Roman';-inkscape-font-specification:NimbusRomNo9L-Regu;writing-mode:lr-tb;fill:#000;fill-opacity:1;fill-rule:nonzero;stroke:none" transform="matrix(1,0,0,-1,142,302.80078)"><tspan id="tspan158" x="0" y="0">H</tspan></text><text id="text164" style="font-variant:normal;font-size:11.66601562px;font-family:'Nimbus Roman';-inkscape-font-specification:NimbusRomNo9L-Regu;writing-mode:lr-tb;fill:#000;fill-opacity:1;fill-rule:nonzero;stroke:none" transform="matrix(1,0,0,-1,152,299.13672)"><tspan id="tspan162" x="0" y="0">4</tspan></text><text id="text168" style="font-variant:normal;font-size:14.00024414px;font-family:'Nimbus Roman';-inkscape-font-specification:NimbusRomNo9L-Regu;writing-mode:lr-tb;fill:#000;fill-opacity:1;fill-rule:nonzero;stroke:none" transform="matrix(1,0,0,-1,159,302.80078)"><tspan id="tspan166" x="0" y="0">O</tspan></text><text id="text172" style="font-variant:normal;font-size:11.66601562px;font-family:'Nimbus Roman';-inkscape-font-specification:NimbusRomNo9L-Regu;writing-mode:lr-tb;fill:#000;fill-opacity:1;fill-rule:nonzero;stroke:none" transform="matrix(1,0,0,-1,169,299.13672)"><tspan id="tspan170" x="0" y="0">2</tspan></text><path id="path174" style="fill:none;stroke:#000;stroke-width:1;stroke-linecap:butt;stroke-linejoin:round;stroke-miterlimit:10;stroke-dasharray:none;stroke-opacity:1" d="m 120,183 c 0,0 -68,0 -68,0 -6,0 -12,-6 -12,-12 0,0 0,-22 0,-22 0,-6 6,-12 12,-12 0,0 68,0 68,0 6,0 12,6 12,12 0,0 0,22 0,22 0,6 -6,12 -12,12"/><text id="text178" style="font-variant:normal;font-size:14.00024414px;font-family:'Nimbus Roman';-inkscape-font-specification:NimbusRomNo9L-Regu;writing-mode:lr-tb;fill:#000;fill-opacity:1;fill-rule:nonzero;stroke:none" transform="matrix(1,0,0,-1,60.5,168.80078)"><tspan id="tspan176" x="0" y="0">C</tspan></text><text id="text182" style="font-variant:normal;font-size:11.66601562px;font-family:'Nimbus Roman';-inkscape-font-specification:NimbusRomNo9L-Regu;writing-mode:lr-tb;fill:#000;fill-opacity:1;fill-rule:nonzero;stroke:none" transform="matrix(1,0,0,-1,70.5,165.13672)"><tspan id="tspan180" x="0" y="0">8</tspan></text><text id="text186" style="font-variant:normal;font-size:14.00024414px;font-family:'Nimbus Roman';-inkscape-font-specification:NimbusRomNo9L-Regu;writing-mode:lr-tb;fill:#000;fill-opacity:1;fill-rule:nonzero;stroke:none" transform="matrix(1,0,0,-1,77.5,168.80078)"><tspan id="tspan184" x="0" y="0">H</tspan></text><text id="text190" style="font-variant:normal;font-size:11.66601562px;font-family:'Nimbus Roman';-inkscape-font-specification:NimbusRomNo9L-Regu;writing-mode:lr-tb;fill:#000;fill-opacity:1;fill-rule:nonzero;stroke:none" transform="matrix(1,0,0,-1,87.5,165.13672)"><tspan id="tspan188" x="0" y="0">5</tspan></text><text id="text194" style="font-variant:normal;font-size:14.00024414px;font-family:'Nimbus Roman';-inkscape-font-specification:NimbusRomNo9L-Regu;writing-mode:lr-tb;fill:#000;fill-opacity:1;fill-rule:nonzero;stroke:none" transform="matrix(1,0,0,-1,94.5,168.80078)"><tspan id="tspan192" x="0" y="0">O</tspan></text><text id="text198" style="font-variant:normal;font-size:11.66601562px;font-family:'Nimbus Roman';-inkscape-font-specification:NimbusRomNo9L-Regu;writing-mode:lr-tb;fill:#000;fill-opacity:1;fill-rule:nonzero;stroke:none" transform="matrix(1,0,0,-1,104.5,172.46094)"><tspan id="tspan196" x="0" y="0">+</tspan></text><text id="text204" style="font-variant:normal;font-size:8.00024414px;font-family:'Nimbus Roman';-inkscape-font-specification:NimbusRomNo9L-Regu;writing-mode:lr-tb;fill:#000;fill-opacity:1;fill-rule:nonzero;stroke:none" transform="matrix(1,0,0,-1,47.999999,151.60157)"><tspan id="tspan200" x="0 3.752 7.504 11.248 13.504 17.249 21.001 24.753 28.505 30.753 36.753 40.505 42.753 45.001 48.753 52.506 56.25 58.506 62.258 66.002 68.258" y="0">117.0350 Da, 100.00 %</tspan><tspan id="tspan202" x="27 30.752 33 36.752 40.504 44.249" y="8">3.1463</tspan></text><path id="path206" style="fill:none;stroke:#000;stroke-width:1;stroke-linecap:butt;stroke-linejoin:round;stroke-miterlimit:10;stroke-dasharray:none;stroke-opacity:1" d="M 115.953,233.965 C 110.922,221.703 104.566,206.227 99.008,192.688"/><path id="path208" style="fill:#000;fill-opacity:1;fill-rule:nonzero;stroke:#000;stroke-width:1;stroke-linecap:butt;stroke-linejoin:round;stroke-miterlimit:10;stroke-dasharray:none;stroke-opacity:1" d="m 102.168,191.164 -7.035,-7.922 0.558,10.582 z"/><text id="text212" style="font-variant:normal;font-size:14.00024414px;font-family:'Nimbus Roman';-inkscape-font-specification:NimbusRomNo9L-Regu;writing-mode:lr-tb;fill:#000;fill-opacity:1;fill-rule:nonzero;stroke:none" transform="matrix(1,0,0,-1,107,205.80078)"><tspan id="tspan210" x="0" y="0">H</tspan></text><text id="text216" style="font-variant:normal;font-size:11.66601562px;font-family:'Nimbus Roman';-inkscape-font-specification:NimbusRomNo9L-Regu;writing-mode:lr-tb;fill:#000;fill-opacity:1;fill-rule:nonzero;stroke:none" transform="matrix(1,0,0,-1,117,202.13672)"><tspan id="tspan214" x="0" y="0">2</tspan></text><text id="text220" style="font-variant:normal;font-size:14.00024414px;font-family:'Nimbus Roman';-inkscape-font-specification:NimbusRomNo9L-Regu;writing-mode:lr-tb;fill:#000;fill-opacity:1;fill-rule:nonzero;stroke:none" transform="matrix(1,0,0,-1,124,205.80078)"><tspan id="tspan218" x="0" y="0">O</tspan></text><path id="path222" style="fill:none;stroke:#000;stroke-width:1;stroke-linecap:butt;stroke-linejoin:round;stroke-miterlimit:10;stroke-dasharray:none;stroke-opacity:1" d="m 226,183 c 0,0 -64,0 -64,0 -6,0 -12,-6 -12,-12 0,0 0,-22 0,-22 0,-6 6,-12 12,-12 0,0 64,0 64,0 6,0 12,6 12,12 0,0 0,22 0,22 0,6 -6,12 -12,12"/><text id="text226" style="font-variant:normal;font-size:14.00024414px;font-family:'Nimbus Roman';-inkscape-font-specification:NimbusRomNo9L-Regu;writing-mode:lr-tb;fill:#000;fill-opacity:1;fill-rule:nonzero;stroke:none" transform="matrix(1,0,0,-1,168.5,168.80078)"><tspan id="tspan224" x="0" y="0">C</tspan></text><text id="text230" style="font-variant:normal;font-size:11.66601562px;font-family:'Nimbus Roman';-inkscape-font-specification:NimbusRomNo9L-Regu;writing-mode:lr-tb;fill:#000;fill-opacity:1;fill-rule:nonzero;stroke:none" transform="matrix(1,0,0,-1,178.5,165.13672)"><tspan id="tspan228" x="0" y="0">7</tspan></text><text id="text234" style="font-variant:normal;font-size:14.00024414px;font-family:'Nimbus Roman';-inkscape-font-specification:NimbusRomNo9L-Regu;writing-mode:lr-tb;fill:#000;fill-opacity:1;fill-rule:nonzero;stroke:none" transform="matrix(1,0,0,-1,185.5,168.80078)"><tspan id="tspan232" x="0" y="0">H</tspan></text><text id="text238" style="font-variant:normal;font-size:11.66601562px;font-family:'Nimbus Roman';-inkscape-font-specification:NimbusRomNo9L-Regu;writing-mode:lr-tb;fill:#000;fill-opacity:1;fill-rule:nonzero;stroke:none" transform="matrix(1,0,0,-1,195.5,165.13672)"><tspan id="tspan236" x="0" y="0">7</tspan></text><text id="text242" style="font-variant:normal;font-size:14.00024414px;font-family:'Nimbus Roman';-inkscape-font-specification:NimbusRomNo9L-Regu;writing-mode:lr-tb;fill:#000;fill-opacity:1;fill-rule:nonzero;stroke:none" transform="matrix(1,0,0,-1,202.5,168.80078)"><tspan id="tspan240" x="0" y="0">O</tspan></text><text id="text246" style="font-variant:normal;font-size:11.66601562px;font-family:'Nimbus Roman';-inkscape-font-specification:NimbusRomNo9L-Regu;writing-mode:lr-tb;fill:#000;fill-opacity:1;fill-rule:nonzero;stroke:none" transform="matrix(1,0,0,-1,212.5,172.46094)"><tspan id="tspan244" x="0" y="0">+</tspan></text><text id="text252" style="font-variant:normal;font-size:8.00024414px;font-family:'Nimbus Roman';-inkscape-font-specification:NimbusRomNo9L-Regu;writing-mode:lr-tb;fill:#000;fill-opacity:1;fill-rule:nonzero;stroke:none" transform="matrix(1,0,0,-1,158,151.60157)"><tspan id="tspan248" x="0 3.752 7.504 11.248 13.504 17.249 21.001 24.753 28.505 30.753 36.753 40.505 42.753 45.001 48.753 52.506 54.754 58.506 62.258 64.506" y="0">107.0480 Da, 11.78 %</tspan><tspan id="tspan250" x="25 28.752 31 34.752 38.504 42.249" y="8">2.6896</tspan></text><path id="path254" style="fill:none;stroke:#000;stroke-width:1;stroke-linecap:butt;stroke-linejoin:round;stroke-miterlimit:10;stroke-dasharray:none;stroke-opacity:1" d="m 141.004,233.965 c 9.164,-12.617 20.801,-28.641 30.836,-42.457"/><path id="path256" style="fill:#000;fill-opacity:1;fill-rule:nonzero;stroke:#000;stroke-width:1;stroke-linecap:butt;stroke-linejoin:round;stroke-miterlimit:10;stroke-dasharray:none;stroke-opacity:1" d="m 174.801,193.391 3.043,-10.149 -8.707,6.035 z"/><text id="text260" style="font-variant:normal;font-size:14.00024414px;font-family:'Nimbus Roman';-inkscape-font-specification:NimbusRomNo9L-Regu;writing-mode:lr-tb;fill:#000;fill-opacity:1;fill-rule:nonzero;stroke:none" transform="matrix(1,0,0,-1,163,204.80078)"><tspan id="tspan258" x="0 9.002" y="0">CO</tspan></text><path id="path262" style="fill:none;stroke:#000;stroke-width:1;stroke-linecap:butt;stroke-linejoin:round;stroke-miterlimit:10;stroke-dasharray:none;stroke-opacity:1" d="m 224,86 c 0,0 -60,0 -60,0 -6,0 -12,-6 -12,-12 0,0 0,-22 0,-22 0,-6 6,-12 12,-12 0,0 60,0 60,0 6,0 12,6 12,12 0,0 0,22 0,22 0,6 -6,12 -12,12"/><text id="text266" style="font-variant:normal;font-size:14.00024414px;font-family:'Nimbus Roman';-inkscape-font-specification:NimbusRomNo9L-Regu;writing-mode:lr-tb;fill:#000;fill-opacity:1;fill-rule:nonzero;stroke:none" transform="matrix(1,0,0,-1,173.5,71.800781)"><tspan id="tspan264" x="0" y="0">C</tspan></text><text id="text270" style="font-variant:normal;font-size:11.66601562px;font-family:'Nimbus Roman';-inkscape-font-specification:NimbusRomNo9L-Regu;writing-mode:lr-tb;fill:#000;fill-opacity:1;fill-rule:nonzero;stroke:none" transform="matrix(1,0,0,-1,183.5,68.136719)"><tspan id="tspan268" x="0" y="0">7</tspan></text><text id="text274" style="font-variant:normal;font-size:14.00024414px;font-family:'Nimbus Roman';-inkscape-font-specification:NimbusRomNo9L-Regu;writing-mode:lr-tb;fill:#000;fill-opacity:1;fill-rule:nonzero;stroke:none" transform="matrix(1,0,0,-1,190.5,71.800781)"><tspan id="tspan272" x="0" y="0">H</tspan></text><text id="text280" style="font-variant:normal;font-size:11.66601562px;font-family:'Nimbus Roman';-inkscape-font-specification:NimbusRomNo9L-Regu;writing-mode:lr-tb;fill:#000;fill-opacity:1;fill-rule:nonzero;stroke:none" transform="matrix(1,0,0,-1,200.5,68.136719)"><tspan id="tspan276" x="0" y="0">5</tspan><tspan id="tspan278" x="7" y="-7.324">+</tspan></text><text id="text286" style="font-variant:normal;font-size:8.00024414px;font-family:'Nimbus Roman';-inkscape-font-specification:NimbusRomNo9L-Regu;writing-mode:lr-tb;fill:#000;fill-opacity:1;fill-rule:nonzero;stroke:none" transform="matrix(1,0,0,-1,160,54.601566)"><tspan id="tspan282" x="0 3.752 7.504 9.752 13.504 17.249 21.001 24.753 27.001 33.001 36.753 39.001 41.249 45.001 48.753 51.002 54.754 58.506 60.754" y="0">89.0400 Da, 32.61 %</tspan><tspan id="tspan284" x="23 26.752 29 32.752 36.504 40.249" y="8">3.0990</tspan></text><path id="path288" style="fill:none;stroke:#000;stroke-width:1;stroke-linecap:butt;stroke-linejoin:round;stroke-miterlimit:10;stroke-dasharray:none;stroke-opacity:1" d="m 194,136.965 c 0,-12.024 0,-27.137 0,-40.488"/><path id="path290" style="fill:#000;fill-opacity:1;fill-rule:nonzero;stroke:#000;stroke-width:1;stroke-linecap:butt;stroke-linejoin:round;stroke-miterlimit:10;stroke-dasharray:none;stroke-opacity:1" d="m 197.5,96.242 -3.5,-10 -3.5,10 z"/><text id="text294" style="font-variant:normal;font-size:14.00024414px;font-family:'Nimbus Roman';-inkscape-font-specification:NimbusRomNo9L-Regu;writing-mode:lr-tb;fill:#000;fill-opacity:1;fill-rule:nonzero;stroke:none" transform="matrix(1,0,0,-1,194,108.80078)"><tspan id="tspan292" x="0" y="0">H</tspan></text><text id="text298" style="font-variant:normal;font-size:11.66601562px;font-family:'Nimbus Roman';-inkscape-font-specification:NimbusRomNo9L-Regu;writing-mode:lr-tb;fill:#000;fill-opacity:1;fill-rule:nonzero;stroke:none" transform="matrix(1,0,0,-1,204,105.13672)"><tspan id="tspan296" x="0" y="0">2</tspan></text><text id="text302" style="font-variant:normal;font-size:14.00024414px;font-family:'Nimbus Roman';-inkscape-font-specification:NimbusRomNo9L-Regu;writing-mode:lr-tb;fill:#000;fill-opacity:1;fill-rule:nonzero;stroke:none" transform="matrix(1,0,0,-1,211,108.80078)"><tspan id="tspan300" x="0" y="0">O</tspan></text></g></g></svg>